<svg width="269" height="10" viewBox="0 0 269 10" fill="none" xmlns="http://www.w3.org/2000/svg">
<path d="M116.273 9C127.197 8.55368 138.123 8.20971 149.074 8.01412C155.22 7.90449 161.365 7.84174 167.514 7.78692C175.823 7.71281 184.578 7.7529 192.705 6.75112C193.134 6.69833 191.833 6.67956 191.396 6.64792C190.482 6.58176 189.557 6.54963 188.641 6.49413C186.361 6.35591 184.093 6.25895 181.805 6.16488C173.942 5.84139 166.055 5.62719 158.166 5.59318C135.136 5.4937 112.575 5.5108 89.6105 6.5701C82.2399 6.91017 74.8943 7.31401 67.5345 7.71009C65.8429 7.80111 60.7307 7.74258 59.5535 8.53202C59.0916 8.84181 61.1272 8.52931 61.9137 8.51798C63.2911 8.49818 64.6565 8.50716 66.0332 8.53153C70.4186 8.60901 74.8092 8.56823 79.1921 8.44573C92.1064 8.08485 105.072 7.9111 118.005 7.67779C143.126 7.22469 168.209 6.1378 193.301 5.45055C200.812 5.24499 208.299 4.84756 215.809 4.66449C220.023 4.5618 225.783 4.79748 229.632 3.78318C230.427 3.57356 227.837 3.66999 226.94 3.61162C225.348 3.50807 223.784 3.41385 222.181 3.35193C216.864 3.1467 211.477 3.21081 206.144 3.07377C190.716 2.67719 175.263 2.51087 159.807 2.5063C127.585 2.49717 94.8393 2.59986 62.7269 3.96134C50.117 4.49598 35.2632 4.19838 23.1865 6.28568C22.2637 6.44523 25.1466 6.30294 26.1223 6.34304C28.0094 6.4207 29.9275 6.35455 31.8208 6.41512C37.7207 6.6041 43.6084 6.39752 49.5107 6.32189C67.1206 6.09568 84.766 6.06252 102.4 5.87946C121.861 5.67727 141.234 4.69157 160.666 4.21919C182.818 3.68066 204.962 3.36376 227.104 2.75738C237.53 2.47179 247.956 2.38686 258.394 2.39854C259.879 2.40023 266.882 2.81931 267.892 2.24897C268.576 1.86321 265.828 2.07892 264.793 2.00076C262.455 1.82412 260.109 1.72939 257.756 1.61316C251.438 1.30151 245.071 1.06902 238.72 1.02707C219.38 0.899495 200.02 1.27442 180.684 1.0922C159.329 0.891038 137.782 1.48134 116.418 1.73377C97.1943 1.961 77.8855 1.45969 58.647 1.52668C39.5424 1.59335 20.0938 3.13931 1 2.44749" stroke="#F5C415" stroke-miterlimit="1.5" stroke-linecap="round" stroke-linejoin="round"/>
</svg>
